<?xml version="1.0" encoding="UTF-8"?>
<!DOCTYPE svg PUBLIC "-//W3C//DTD SVG 1.1//EN" "http://www.w3.org/Graphics/SVG/1.1/DTD/svg11.dtd">
<svg xmlns="http://www.w3.org/2000/svg" version="1.1" width="50px" height="50px" style="shape-rendering:geometricPrecision; text-rendering:geometricPrecision; image-rendering:optimizeQuality; fill-rule:evenodd; clip-rule:evenodd" xmlns:xlink="http://www.w3.org/1999/xlink">
<g><path style="opacity:0.755" fill="#0b0889" d="M 16.5,-0.5 C 19.1667,-0.5 21.8333,-0.5 24.5,-0.5C 21.0554,1.72578 17.3888,3.72578 13.5,5.5C 12.6143,4.67504 12.281,3.67504 12.5,2.5C 13.8333,1.5 15.1667,0.5 16.5,-0.5 Z"/></g>
<g><path style="opacity:0.982" fill="#e9dee6" d="M 24.5,-0.5 C 25.8333,-0.5 27.1667,-0.5 28.5,-0.5C 24.0541,2.22575 19.3874,4.72575 14.5,7C 13.3044,7.65431 13.3044,8.15431 14.5,8.5C 20.2197,5.97904 25.5531,2.97904 30.5,-0.5C 31.1667,-0.5 31.8333,-0.5 32.5,-0.5C 32.5,0.166667 32.8333,0.5 33.5,0.5C 33.719,1.67504 33.3857,2.67504 32.5,3.5C 30.1667,4.66667 27.8333,5.83333 25.5,7C 28.6752,6.94666 31.3419,7.77999 33.5,9.5C 25.8333,9.5 18.1667,9.5 10.5,9.5C 9.54885,8.08134 9.21552,6.41467 9.5,4.5C 9.97306,3.09368 10.9731,2.42702 12.5,2.5C 12.281,3.67504 12.6143,4.67504 13.5,5.5C 17.3888,3.72578 21.0554,1.72578 24.5,-0.5 Z"/></g>
<g><path style="opacity:0.958" fill="#05018a" d="M 33.5,0.5 C 41.195,3.52827 46.5283,8.8616 49.5,16.5C 49.5,21.8333 49.5,27.1667 49.5,32.5C 47.6921,35.4362 45.8588,38.4362 44,41.5C 40.5364,44.8055 36.703,47.4721 32.5,49.5C 27.1667,49.5 21.8333,49.5 16.5,49.5C 12.8168,47.6591 9.48351,45.3258 6.5,42.5C 6.55999,41.9569 6.89333,41.6236 7.5,41.5C 10.3879,44.4621 11.7213,43.7954 11.5,39.5C 16.5863,39.0187 16.5863,37.852 11.5,36C 14.1973,33.1901 13.6973,32.3567 10,33.5C 8.62247,28.2158 7.28913,28.2158 6,33.5C 4.81732,32.269 3.65066,32.269 2.5,33.5C 3.65268,34.6868 3.65268,35.6868 2.5,36.5C 1.5,35.1667 0.5,33.8333 -0.5,32.5C -0.5,28.1667 -0.5,23.8333 -0.5,19.5C 0.583168,19.4606 1.58317,19.1272 2.5,18.5C 2.96418,20.9749 3.96418,22.9749 5.5,24.5C 6.83333,24.5 8.16667,24.5 9.5,24.5C 10.5,24.5 11.5,24.5 12.5,24.5C 12.2011,22.396 12.5344,20.396 13.5,18.5C 17.1667,20.3333 20.8333,22.1667 24.5,24C 35.8292,23.6525 36.1625,21.3192 25.5,17C 28.6752,17.0533 31.3419,16.22 33.5,14.5C 33.5,12.8333 33.5,11.1667 33.5,9.5C 31.3419,7.77999 28.6752,6.94666 25.5,7C 27.8333,5.83333 30.1667,4.66667 32.5,3.5C 33.3857,2.67504 33.719,1.67504 33.5,0.5 Z"/></g>
<g><path style="opacity:1" fill="#ff564e" d="M 28.5,-0.5 C 29.1667,-0.5 29.8333,-0.5 30.5,-0.5C 25.5531,2.97904 20.2197,5.97904 14.5,8.5C 13.3044,8.15431 13.3044,7.65431 14.5,7C 19.3874,4.72575 24.0541,2.22575 28.5,-0.5 Z"/></g>
<g><path style="opacity:0.964" fill="#ff1e13" d="M 9.5,4.5 C 9.21552,6.41467 9.54885,8.08134 10.5,9.5C 17.6476,10.4916 24.9809,10.825 32.5,10.5C 32.5,11.5 32.5,12.5 32.5,13.5C 24.9809,13.175 17.6476,13.5084 10.5,14.5C 9.52056,17.6248 9.18723,20.9581 9.5,24.5C 8.16667,24.5 6.83333,24.5 5.5,24.5C 5.5,21.1667 5.5,17.8333 5.5,14.5C 4.16667,14.5 2.83333,14.5 1.5,14.5C 2.75925,9.95143 5.42592,6.6181 9.5,4.5 Z"/></g>
<g><path style="opacity:1" fill="#f46d76" d="M 10.5,9.5 C 18.1667,9.5 25.8333,9.5 33.5,9.5C 33.5,11.1667 33.5,12.8333 33.5,14.5C 25.8333,14.5 18.1667,14.5 10.5,14.5C 17.6476,13.5084 24.9809,13.175 32.5,13.5C 32.5,12.5 32.5,11.5 32.5,10.5C 24.9809,10.825 17.6476,10.4916 10.5,9.5 Z"/></g>
<g><path style="opacity:1" fill="#f4cfd0" d="M 10.5,14.5 C 18.1667,14.5 25.8333,14.5 33.5,14.5C 31.3419,16.22 28.6752,17.0533 25.5,17C 36.1625,21.3192 35.8292,23.6525 24.5,24C 20.8333,22.1667 17.1667,20.3333 13.5,18.5C 12.5344,20.396 12.2011,22.396 12.5,24.5C 11.5,24.5 10.5,24.5 9.5,24.5C 9.18723,20.9581 9.52056,17.6248 10.5,14.5 Z"/></g>
<g><path style="opacity:1" fill="#efe2e6" d="M 1.5,14.5 C 2.83333,14.5 4.16667,14.5 5.5,14.5C 5.5,17.8333 5.5,21.1667 5.5,24.5C 3.96418,22.9749 2.96418,20.9749 2.5,18.5C 1.58317,19.1272 0.583168,19.4606 -0.5,19.5C -0.5,18.5 -0.5,17.5 -0.5,16.5C 0.166667,15.8333 0.833333,15.1667 1.5,14.5 Z"/></g>
<g><path style="opacity:1" fill="#cbcadc" d="M 42.5,18.5 C 44.9401,18.2343 46.9401,19.401 48.5,22C 46.3271,25.1235 43.9938,25.1235 41.5,22C 42.3366,20.9887 42.67,19.8221 42.5,18.5 Z"/></g>
<g><path style="opacity:0.954" fill="#dddce9" d="M 6.5,42.5 C 4.6736,40.8525 3.34026,38.8525 2.5,36.5C 3.65268,35.6868 3.65268,34.6868 2.5,33.5C 3.65066,32.269 4.81732,32.269 6,33.5C 7.28913,28.2158 8.62247,28.2158 10,33.5C 13.6973,32.3567 14.1973,33.1901 11.5,36C 16.5863,37.852 16.5863,39.0187 11.5,39.5C 11.7213,43.7954 10.3879,44.4621 7.5,41.5C 6.89333,41.6236 6.55999,41.9569 6.5,42.5 Z"/></g>
</svg>
